<svg xmlns="http://www.w3.org/2000/svg" viewBox="0 0 404.07 80.67"><g id="圖層_2" data-name="圖層 2"><g id="圖層_1-2" data-name="圖層 1"><path d="M21,63.46s-7.47,3.93-7.47,17.21H38.71s-.86-13.61-7.93-17.21Z" fill="#e8babc"/><path d="M21,60.36s3.43,4,10.1,0c0,0-.89,7.19-5.44,7.19S21,60.36,21,60.36Z" fill="#f7cbba"/><path d="M45.25,45c-.08,14.53-8.06,18.51-18.95,18.51h0c-10.88,0-19.23-4-18.94-18.51L6.59,26.39c0-12,8.83-16.09,19.71-16.09h0C37.19,10.3,46,14.39,46,26.39Z" fill="#ffdaca"/><path d="M26.07,50.35c-1.31,0-2.11-.33-2.44-1-.92-1.88,2.69-5.39,3.42-6.08l.57.61C26,45.4,23.9,48,24.38,49c.13.27.75.84,3.65.34l.14.83A12.39,12.39,0,0,1,26.07,50.35Z" fill="#efa88f"/><path d="M26.46,58.22A13.6,13.6,0,0,1,19,55.58l.51-.66c.29.23,7.07,5.48,12.86,0l.57.62A9.15,9.15,0,0,1,26.46,58.22Z" fill="#efa88f"/><path d="M7.07,37.93s-1.95-3.57-3.9,0,4.17,6.65,4.17,6.65Z" fill="#f7cbba"/><path d="M45.09,38.38s1.51-3,3.8-1-2,6.3-4,6.68Z" fill="#f7cbba"/><path d="M39.43,36.68C35.7,34,33.3,35.89,33.2,36l-.53-.64s3-2.45,7.25.67Z" fill="#666"/><path d="M13,36.69,12.51,36c4.28-3.12,7.22-.7,7.25-.67l-.53.64C19.13,35.9,16.73,34,13,36.69Z" fill="#666"/><path d="M38.71,19.89S12.94,35.77,6.83,32.3l.24,5.63s-2.36-4-4.24.94c0,0-.88,2.68,4.51,5.71,0,0-1.38,15.9,12.16,18.22,0,0-24.32,9.26-18.64-15.29C3.58,35.77.71,1.78,33.16,8.94c0,0,16.37-2.66,17.59,27.4,0,0,.45,9.49,1,17.88,0,0,3.44,13.88-18.81,8.61,0,0,12.42-2.87,12.36-18.92,0,0,5.37-3.38,3.94-6,0,0-1.55-2.62-3.69-.17A44.64,44.64,0,0,1,38.71,19.89Z" fill="#3d4447"/><path d="M37.63,40.34A1.33,1.33,0,1,1,36.31,39,1.32,1.32,0,0,1,37.63,40.34Z" fill="#3e1f11"/><path d="M17.45,40.34A1.33,1.33,0,1,1,16.13,39,1.32,1.32,0,0,1,17.45,40.34Z" fill="#3e1f11"/><polygon points="30.18 62.99 25.83 67.39 27.19 70.17 31.59 63.93 30.18 62.99" fill="#ffebf1"/><polygon points="21.48 62.99 25.83 67.39 24.47 70.17 20.07 63.93 21.48 62.99" fill="#ffebf1"/><path d="M13.54,19.85a48.73,48.73,0,0,1,27.28-.11s1.38.53,2.16-1.33L46.76,6.26s1.16-2.59-1.43-3.1c0,0-17.92-7.42-35.94.48A2.58,2.58,0,0,0,8.07,6.85L11.56,18.3S12.19,20.25,13.54,19.85Z" fill="#dbdbdb"/><path d="M13.79,19.78a47.89,47.89,0,0,1,26.81-.1s1.35.52,2.12-1.31L46.43,6.43s1.14-2.55-1.41-3c0,0-17.6-7.29-35.3.47A2.53,2.53,0,0,0,8.41,7l3.43,11.26S12.46,20.17,13.79,19.78Z" fill="#dcdcdc"/><path d="M14,19.72a47,47,0,0,1,26.33-.1s1.33.51,2.09-1.29L46.1,6.61s1.12-2.51-1.38-3c0,0-17.3-7.16-34.68.46A2.5,2.5,0,0,0,8.76,7.18l3.37,11.05S12.73,20.1,14,19.72Z" fill="#ddd"/><path d="M14.29,19.65a46.15,46.15,0,0,1,25.85-.1s1.31.51,2-1.26L45.77,6.78s1.1-2.46-1.35-2.94c0,0-17-7-34.06.45A2.46,2.46,0,0,0,9.1,7.34l3.31,10.85S13,20,14.29,19.65Z" fill="#dedede"/><path d="M14.54,19.59a45.36,45.36,0,0,1,25.38-.1s1.28.49,2-1.24L45.44,7s1.08-2.41-1.33-2.89c0,0-16.67-6.9-33.43.45a2.4,2.4,0,0,0-1.23,3l3.24,10.65S13.28,20,14.54,19.59Z" fill="#dfdfdf"/><path d="M14.78,19.52a44.53,44.53,0,0,1,24.91-.09s1.26.48,2-1.22L45.11,7.12s1.06-2.37-1.3-2.83c0,0-16.36-6.77-32.81.44A2.35,2.35,0,0,0,9.79,7.66L13,18.11S13.55,19.89,14.78,19.52Z" fill="#e0e0e0"/><path d="M15,19.46a43.63,43.63,0,0,1,24.44-.09s1.23.47,1.93-1.2L44.78,7.29s1-2.32-1.28-2.77c0,0-16-6.65-32.17.42a2.32,2.32,0,0,0-1.19,2.88l3.12,10.26S13.83,19.81,15,19.46Z" fill="#e1e1e1"/><path d="M15.28,19.39a42.82,42.82,0,0,1,24-.09s1.21.47,1.9-1.16L44.45,7.46s1-2.27-1.25-2.72c0,0-15.74-6.51-31.55.42A2.27,2.27,0,0,0,10.48,8L13.55,18S14.1,19.74,15.28,19.39Z" fill="#e2e2e2"/><path d="M15.53,19.33A41.9,41.9,0,0,1,39,19.24s1.19.45,1.86-1.14L44.12,7.64s1-2.24-1.23-2.67c0,0-15.42-6.39-30.92.41a2.22,2.22,0,0,0-1.14,2.77l3,9.85S14.37,19.67,15.53,19.33Z" fill="#e3e3e3"/><path d="M15.78,19.26a41.16,41.16,0,0,1,23-.08s1.16.44,1.82-1.12L43.79,7.81s1-2.19-1.2-2.61c0,0-15.11-6.26-30.3.4a2.18,2.18,0,0,0-1.12,2.71L14.11,18S14.64,19.6,15.78,19.26Z" fill="#e4e4e4"/><path d="M16,19.2a40.29,40.29,0,0,1,22.53-.09s1.14.44,1.78-1.09L43.46,8s1-2.14-1.18-2.56c0,0-14.8-6.12-29.67.39a2.13,2.13,0,0,0-1.09,2.66l2.88,9.45S14.92,19.53,16,19.2Z" fill="#e5e5e5"/><path d="M16.28,19.13a39.41,39.41,0,0,1,22-.08s1.12.43,1.75-1.07l3.05-9.83s.94-2.09-1.15-2.5c0,0-14.49-6-29,.38a2.09,2.09,0,0,0-1.07,2.6l2.82,9.26S15.19,19.46,16.28,19.13Z" fill="#e6e6e6"/><path d="M16.53,19.07A38.53,38.53,0,0,1,38.11,19s1.09.41,1.71-1l3-9.62s.92-2.05-1.13-2.45c0,0-14.17-5.86-28.41.38a2,2,0,0,0-1,2.54L15,17.85S15.46,19.38,16.53,19.07Z" fill="#e7e7e7"/><path d="M16.78,19a37.71,37.71,0,0,1,21.1-.08s1.07.41,1.67-1l2.93-9.4s.89-2-1.11-2.4c0,0-13.86-5.74-27.79.37a2,2,0,0,0-1,2.48l2.7,8.86S15.74,19.31,16.78,19Z" fill="#e7e7e7"/><path d="M17,18.94a36.81,36.81,0,0,1,20.63-.08s1,.4,1.63-1l2.86-9.19s.87-2-1.09-2.34c0,0-13.54-5.61-27.16.36a1.94,1.94,0,0,0-1,2.43l2.63,8.65S16,19.24,17,18.94Z" fill="#e8e8e8"/><path d="M17.28,18.87a36,36,0,0,1,20.15-.07s1,.39,1.59-1l2.8-9s.85-1.92-1.06-2.29c0,0-13.24-5.48-26.54.35a1.92,1.92,0,0,0-1,2.38l2.58,8.45S16.28,19.17,17.28,18.87Z" fill="#e9e9e9"/><path d="M17.53,18.81a35.17,35.17,0,0,1,19.67-.08s1,.39,1.56-.95L41.49,9s.83-1.87-1-2.23c0,0-12.92-5.35-25.91.34a1.87,1.87,0,0,0-.95,2.32L16.1,17.7S16.56,19.1,17.53,18.81Z" fill="#eaeaea"/><path d="M17.78,18.74A34.34,34.34,0,0,1,37,18.67s1,.37,1.52-.93l2.66-8.56S42,7.36,40.15,7c0,0-12.61-5.22-25.29.34a1.81,1.81,0,0,0-.93,2.26l2.46,8.06S16.83,19,17.78,18.74Z" fill="#ebebeb"/><path d="M18,18.68a33.41,33.41,0,0,1,18.72-.07s1,.36,1.48-.91l2.6-8.34s.79-1.78-1-2.13c0,0-12.29-5.09-24.65.33a1.76,1.76,0,0,0-.91,2.2l2.39,7.86S17.1,19,18,18.68Z" fill="#ececec"/><path d="M18.28,18.61a32.59,32.59,0,0,1,18.24-.07s.93.36,1.45-.88L40.5,9.53s.77-1.74-1-2.07c0,0-12-5-24,.31a1.74,1.74,0,0,0-.89,2.15L17,17.58S17.38,18.88,18.28,18.61Z" fill="#ededed"/><path d="M18.53,18.55a31.8,31.8,0,0,1,17.77-.07s.9.35,1.4-.86L40.17,9.7s.75-1.69-.94-2c0,0-11.67-4.83-23.4.31a1.68,1.68,0,0,0-.86,2.1l2.27,7.45S17.65,18.81,18.53,18.55Z" fill="#eee"/><path d="M18.78,18.48a30.93,30.93,0,0,1,17.29-.06s.88.33,1.37-.84l2.4-7.71s.73-1.64-.91-2c0,0-11.36-4.7-22.78.3a1.64,1.64,0,0,0-.84,2l2.21,7.26S17.92,18.74,18.78,18.48Z" fill="#efefef"/><path d="M19,18.42a30,30,0,0,1,16.82-.06s.85.32,1.33-.82L39.51,10s.71-1.59-.89-1.91c0,0-11-4.57-22.15.3a1.58,1.58,0,0,0-.81,2l2.15,7.06S18.19,18.67,19,18.42Z" fill="#f0f0f0"/><path d="M19.28,18.35a29.22,29.22,0,0,1,16.34-.06s.82.32,1.29-.79l2.27-7.28s.69-1.56-.86-1.86c0,0-10.74-4.44-21.52.29a1.54,1.54,0,0,0-.8,1.92l2.09,6.86S18.47,18.59,19.28,18.35Z" fill="#f1f1f1"/><path d="M19.53,18.29a28.29,28.29,0,0,1,15.86-.06s.8.31,1.26-.77l2.2-7.07s.67-1.51-.84-1.8c0,0-10.42-4.32-20.89.27a1.5,1.5,0,0,0-.77,1.87l2,6.66S18.74,18.52,19.53,18.29Z" fill="#f2f2f2"/><polygon points="31.35 9.38 28.32 9.37 28.33 6.32 26.72 6.31 26.7 9.36 23.67 9.34 23.66 10.97 26.7 10.98 26.68 14.03 28.3 14.03 28.31 10.99 31.34 11 31.35 9.38" fill="#dd5e5e"/></g><g id="圖層_3" data-name="圖層 3"><path d="M114.61,69.3c1,.94,1.79,2,2.8,2.85a10.69,10.69,0,0,0,12.92.37c6-4.51,6.13-14,11.51-18.91a2.54,2.54,0,0,1,2.27-.8c1.59.44,1.5,1.43,1.36,2.45A7.42,7.42,0,0,1,144.18,58c-3.52,5.67-4.89,12.72-9.64,17.42-5.81,5.76-15.79,6.09-21.59.32-2.64-2.62-2.86-4.59-8.79-7l-.08,0a.88.88,0,0,0-1,.15q-9.94,7-28.38,10.32a6,6,0,0,1-.8.07,3.87,3.87,0,0,1-3.26-1.88,1.57,1.57,0,0,1-.19-1.55,1.47,1.47,0,0,1,1.2-1q16.69-2.39,26.13-8.16A.22.22,0,0,0,98,66.5a.23.23,0,0,0-.15-.22C77.56,62,85.64,45.64,85.64,45.64a.3.3,0,0,0,0-.29.31.31,0,0,0-.29-.14H69.67A2.32,2.32,0,0,1,68,44.52a2.33,2.33,0,0,1,0-3.31,2.32,2.32,0,0,1,1.71-.69H87.82a.88.88,0,0,0,.79-.51q1.61-3,4.65-9.23a3.44,3.44,0,0,1,1.45-1.52A4,4,0,0,1,96.16,29a3.37,3.37,0,0,1,.66.08,1.87,1.87,0,0,1,1.41,1.08,2.05,2.05,0,0,1,0,1.73q-2,3.9-4.21,8.15a.39.39,0,0,0,0,.37.42.42,0,0,0,.33.14h36a2.32,2.32,0,0,1,1.71.69,2.33,2.33,0,0,1,0,3.31,2.32,2.32,0,0,1-1.71.69H119.68a.66.66,0,0,0-.72.5q-3.42,11.77-10.82,19.05c-.24.25-.23.48.07.58A16.47,16.47,0,0,1,114.61,69.3ZM75,24.86c-.34,0-.51.19-.51.58V33.3a2.47,2.47,0,0,1-.72,1.77,2.46,2.46,0,0,1-3.56,0,2.48,2.48,0,0,1-.73-1.77V24.57a4.08,4.08,0,0,1,1.27-3,4.2,4.2,0,0,1,3-1.22h23c.33,0,.5-.2.5-.58v-5a2.37,2.37,0,0,1,.77-1.8,2.52,2.52,0,0,1,3.55,0,2.37,2.37,0,0,1,.77,1.8v5c0,.38.16.58.5.58h23.74a4.18,4.18,0,0,1,3,1.22,4,4,0,0,1,1.27,3v8.66a2.58,2.58,0,1,1-5.15,0V25.44c0-.39-.17-.58-.51-.58ZM102.19,63a.72.72,0,0,0,.87-.14,35.56,35.56,0,0,0,10.31-17.18.4.4,0,0,0,0-.36.39.39,0,0,0-.33-.14H92a.8.8,0,0,0-.8.43S81.1,59.7,102.19,63Z" fill="#ea7f7f"/><path d="M149.64,52.94a2.13,2.13,0,1,1,4.25,0V72a2.77,2.77,0,0,0,.49,2,3.49,3.49,0,0,0,2.17.45h7.13A2.23,2.23,0,0,0,166,72.83a20.37,20.37,0,0,0,.73-5,1.09,1.09,0,0,1,.67-1,1.42,1.42,0,0,1,1.27,0A3.19,3.19,0,0,1,170,68a2.36,2.36,0,0,1,.43,1.36v.26c-.29,3.07-.8,5.19-1.55,6.36q-1.29,2.17-4.93,2.17h-7.86c-2.52,0-4.23-.42-5.13-1.28s-1.35-2.47-1.35-4.86Zm2.15-10.28a1.41,1.41,0,0,1-.86-1,1.89,1.89,0,0,1-.05-.38,1.48,1.48,0,0,1,.35-.94,3.11,3.11,0,0,1,1.5-.94,3.88,3.88,0,0,1,.73-.08,3.09,3.09,0,0,1,1,.17q2.83,1.11,5.92,2.64,2.88,1.45,5.07,2.82a2,2,0,0,1,.94,1.37,1.89,1.89,0,0,1,.05.38,2,2,0,0,1-.43,1.24,2.15,2.15,0,0,1-1.46.85,1.91,1.91,0,0,1-.39,0,2.52,2.52,0,0,1-1.33-.38A46.54,46.54,0,0,0,158,45.6,65.26,65.26,0,0,0,151.79,42.66ZM168.57,56.1a1.62,1.62,0,0,1-.34-1,1.4,1.4,0,0,1,.08-.47,1.68,1.68,0,0,1,.9-1.15,2.52,2.52,0,0,1,1.12-.26c.17,0,.36,0,.56,0a2.36,2.36,0,0,1,1.41.94,56.39,56.39,0,0,1,3.83,6.36,41.74,41.74,0,0,1,2.4,5.68,2.64,2.64,0,0,1,.13.81,2.27,2.27,0,0,1-.26,1,2.71,2.71,0,0,1-1.33,1.32,1.76,1.76,0,0,1-1.55,0,1.92,1.92,0,0,1-1.07-1.19,38.17,38.17,0,0,0-2.27-5.72A46,46,0,0,0,168.57,56.1Z" fill="#ea7f7f"/><path d="M164,78.38h-7.86c-2.6,0-4.33-.44-5.28-1.34s-1.42-2.55-1.42-5V52.94a2.35,2.35,0,1,1,4.69,0V72c0,1.19.23,1.65.42,1.82s.71.39,2,.39h7.13a2,2,0,0,0,2.11-1.47,20.65,20.65,0,0,0,.71-4.9,1.34,1.34,0,0,1,.79-1.16,1.63,1.63,0,0,1,1.46,0,3.61,3.61,0,0,1,1.46,1.18,2.68,2.68,0,0,1,.47,1.49v.26c-.29,3.15-.81,5.27-1.58,6.47C168.21,77.61,166.48,78.38,164,78.38ZM151.76,51a1.89,1.89,0,0,0-1.9,1.91V72c0,2.31.43,3.9,1.28,4.7s2.53,1.22,5,1.22H164c2.33,0,3.93-.69,4.74-2.06.73-1.14,1.24-3.25,1.52-6.27v-.24a2.21,2.21,0,0,0-.39-1.24,3,3,0,0,0-1.28-1,1.2,1.2,0,0,0-1.09,0,.91.91,0,0,0-.54.8,20.29,20.29,0,0,1-.74,5,2.44,2.44,0,0,1-2.52,1.76h-7.13a3.65,3.65,0,0,1-2.32-.51,2.89,2.89,0,0,1-.56-2.14V52.94A1.9,1.9,0,0,0,151.76,51ZM176.3,69.8a2.1,2.1,0,0,1-.87-.19,2.14,2.14,0,0,1-1.19-1.32A38.46,38.46,0,0,0,172,62.6a45.4,45.4,0,0,0-3.59-6.37,1.88,1.88,0,0,1-.38-1.11,1.79,1.79,0,0,1,.09-.54,1.92,1.92,0,0,1,1-1.28,2.83,2.83,0,0,1,1.22-.28,4.4,4.4,0,0,1,.59,0,2.55,2.55,0,0,1,1.56,1,53.63,53.63,0,0,1,3.84,6.38,43.62,43.62,0,0,1,2.42,5.71,2.8,2.8,0,0,1,.14.88,2.57,2.57,0,0,1-.28,1.12,2.93,2.93,0,0,1-1.44,1.42A2.09,2.09,0,0,1,176.3,69.8Zm-6-16.34a2.35,2.35,0,0,0-1,.23,1.47,1.47,0,0,0-.78,1,1.22,1.22,0,0,0-.08.42,1.34,1.34,0,0,0,.3.85h0a45.83,45.83,0,0,1,3.63,6.43,38.13,38.13,0,0,1,2.28,5.75,1.71,1.71,0,0,0,1,1,1.57,1.57,0,0,0,1.37,0A2.44,2.44,0,0,0,178.2,68a2.07,2.07,0,0,0,.24-.93,2.25,2.25,0,0,0-.12-.74,41.55,41.55,0,0,0-2.39-5.65,55.55,55.55,0,0,0-3.81-6.33,2.09,2.09,0,0,0-1.28-.85A3.08,3.08,0,0,0,170.33,53.46ZM164.19,49a2.84,2.84,0,0,1-1.44-.41,46,46,0,0,0-4.84-2.81,65.12,65.12,0,0,0-6.21-2.94h0a1.62,1.62,0,0,1-1-1.18,2.37,2.37,0,0,1-.05-.43,1.72,1.72,0,0,1,.4-1.08,3.29,3.29,0,0,1,1.61-1,3.34,3.34,0,0,1,1.89.09c1.9.75,3.9,1.64,5.95,2.66s3.63,1.92,5.09,2.83a2.19,2.19,0,0,1,1,1.5,2.37,2.37,0,0,1,.05.43,2.18,2.18,0,0,1-.48,1.37,2.38,2.38,0,0,1-1.6.94A2.12,2.12,0,0,1,164.19,49Zm-12.32-6.56a62.26,62.26,0,0,1,6.24,2.95A45.21,45.21,0,0,1,163,48.24a2.36,2.36,0,0,0,1.21.34l.34,0a2,2,0,0,0,1.33-.78,1.72,1.72,0,0,0,.39-1.1,2.38,2.38,0,0,0,0-.34,1.74,1.74,0,0,0-.85-1.22c-1.44-.91-3.14-1.85-5.05-2.81s-4-1.9-5.9-2.64a2.89,2.89,0,0,0-1.63-.07,2.76,2.76,0,0,0-1.39.87,1.22,1.22,0,0,0-.29.79,2.38,2.38,0,0,0,0,.34A1.21,1.21,0,0,0,151.87,42.46Z" fill="#ea7f7f"/><path d="M213.51,51.28v1.11c.35,2.79.78,5.37,1.31,7.76a43.48,43.48,0,0,0,2.45,7.49,22.53,22.53,0,0,0,3.93,6.43,2.59,2.59,0,0,1,.69,1.79,2.54,2.54,0,0,1-.61,1.66,2.22,2.22,0,0,1-1.54.81h-.17a1.61,1.61,0,0,1-1.33-.64q-3.87-4.77-6.06-13.14a.13.13,0,0,0-.12-.09.08.08,0,0,0-.09.09,28.8,28.8,0,0,1-8.8,13.91,2,2,0,0,1-1.33.51h-.22a2.59,2.59,0,0,1-1.54-.72,1.81,1.81,0,0,1-.56-1.32,1.66,1.66,0,0,1,.64-1.37,1.4,1.4,0,0,0,.22-.17s0-.07,0-.13,0-.08-.06-.08H188a.26.26,0,0,0-.3.29v.47a2,2,0,1,1-3.9,0V45.35a3.57,3.57,0,0,1,1.09-2.63,3.63,3.63,0,0,1,2.64-1.09h14.85a1.9,1.9,0,0,1,0,3.8h-4.8a.38.38,0,0,0-.43.43v4.91a.37.37,0,0,0,.43.42H200a3.63,3.63,0,0,1,2.64,1.09,3.58,3.58,0,0,1,1.1,2.63v6.44A3.74,3.74,0,0,1,200,65.06h-2.44a.38.38,0,0,0-.43.43V71a.38.38,0,0,0,.43.43h5.06a.82.82,0,0,1,.58.23.78.78,0,0,1,.24.58h0A21.7,21.7,0,0,0,206.24,68,27.37,27.37,0,0,0,208,63.72a29.77,29.77,0,0,0,.94-4.44c.23-1.64.37-3,.41-4.1s.06-2.39.06-3.9V41.85a2,2,0,0,1,.6-1.45,2,2,0,0,1,1.46-.6,2,2,0,0,1,2.06,2.05ZM192.2,45.43h-3.43a1.1,1.1,0,0,0-1.1,1.1V50.1a1.09,1.09,0,0,0,1.1,1.09h3.43a1.1,1.1,0,0,0,1.1-1.09V46.53A1.1,1.1,0,0,0,192.2,45.43Zm7.58,14.82V56a1.09,1.09,0,0,0-1.1-1.09h-9.91a1.09,1.09,0,0,0-1.1,1.09v4.25a1.1,1.1,0,0,0,1.1,1.1h9.91A1.1,1.1,0,0,0,199.78,60.25Zm-12.11,5.91v4.16a1.1,1.1,0,0,0,1.1,1.1h3.43a1.1,1.1,0,0,0,1.1-1.1V66.16a1.1,1.1,0,0,0-1.1-1.1h-3.43A1.1,1.1,0,0,0,187.67,66.16Z" fill="#ea7f7f"/><path d="M201.84,79.19h-.22a2.85,2.85,0,0,1-1.69-.78,2,2,0,0,1-.63-1.48,1.88,1.88,0,0,1,.72-1.54H188c-.05,0-.07,0-.07,0s0,0,0,.06v.47a2.17,2.17,0,1,1-4.34,0V45.35a3.94,3.94,0,0,1,3.95-3.93h14.85a2,2,0,0,1,1.49.61,2.08,2.08,0,0,1,.62,1.5,2.12,2.12,0,0,1-2.11,2.12h-4.8c-.17,0-.21.05-.21.21v4.91c0,.16,0,.2.21.2H200a3.83,3.83,0,0,1,2.8,1.16A3.78,3.78,0,0,1,204,54.91v6.44a3.8,3.8,0,0,1-1.16,2.78,3.86,3.86,0,0,1-2.8,1.15h-2.44c-.17,0-.21,0-.21.21V71c0,.17,0,.21.21.21h5.06a1,1,0,0,1,.74.3,1.15,1.15,0,0,1,.2.29,21.85,21.85,0,0,0,2.49-3.9,27.68,27.68,0,0,0,1.73-4.24,29,29,0,0,0,.93-4.4,40.81,40.81,0,0,0,.41-4.08c0-1.08.06-2.39.06-3.89V41.85a2.28,2.28,0,1,1,4.56,0V52.39c.34,2.74.78,5.35,1.31,7.72a43.24,43.24,0,0,0,2.43,7.45,22.64,22.64,0,0,0,3.89,6.36,2.8,2.8,0,0,1,.75,1.94,2.72,2.72,0,0,1-.66,1.8,2.5,2.5,0,0,1-1.69.89h-.19a1.87,1.87,0,0,1-1.51-.72,34.77,34.77,0,0,1-6-12.85,29.08,29.08,0,0,1-8.76,13.65A2.23,2.23,0,0,1,201.84,79.19ZM188,75h12.37s.21,0,.27.25a.3.3,0,0,1-.08.33,1.21,1.21,0,0,1-.24.2,1.42,1.42,0,0,0-.55,1.19,1.57,1.57,0,0,0,.49,1.16,2.44,2.44,0,0,0,1.42.67h.19A1.84,1.84,0,0,0,203,78.3a28.74,28.74,0,0,0,8.72-13.79.29.29,0,0,1,.31-.26.35.35,0,0,1,.32.2l0,0c1.44,5.53,3.46,9.92,6,13.07a1.41,1.41,0,0,0,1.16.55h.17a2.06,2.06,0,0,0,1.38-.73,2.28,2.28,0,0,0,.55-1.52,2.38,2.38,0,0,0-.64-1.65,23,23,0,0,1-4-6.48,43.92,43.92,0,0,1-2.46-7.53c-.53-2.38-1-5-1.31-7.79V41.85a1.74,1.74,0,0,0-.53-1.3,1.85,1.85,0,0,0-3.15,1.3v9.43c0,1.5,0,2.82-.06,3.91s-.18,2.48-.41,4.12a30.16,30.16,0,0,1-.95,4.47,29.5,29.5,0,0,1-1.75,4.3,22.61,22.61,0,0,1-2.8,4.29l-.07.08h-.32l0-.22a.54.54,0,0,0-.18-.42.54.54,0,0,0-.42-.17h-5.06a.59.59,0,0,1-.65-.65v-5.5a.59.59,0,0,1,.65-.65H200a3.38,3.38,0,0,0,2.49-1,3.35,3.35,0,0,0,1-2.47V54.91a3.31,3.31,0,0,0-1-2.47,3.39,3.39,0,0,0-2.49-1h-2.44a.59.59,0,0,1-.65-.64V45.86a.59.59,0,0,1,.65-.65h4.8a1.68,1.68,0,0,0,0-3.36H187.5a3.35,3.35,0,0,0-2.48,1,3.29,3.29,0,0,0-1,2.47V75.94a1.66,1.66,0,0,0,.51,1.24,1.73,1.73,0,0,0,2.95-1.24v-.47A.48.48,0,0,1,188,75Zm4.9-3.32H188.1a.6.6,0,0,1-.65-.65v-5.5a.6.6,0,0,1,.65-.65h4.77a.6.6,0,0,1,.65.65V71A.6.6,0,0,1,192.87,71.64Zm-4.77-6.36c-.16,0-.21,0-.21.21V71c0,.17.05.21.21.21h4.77c.16,0,.21,0,.21-.21v-5.5c0-.16-.05-.21-.21-.21Zm11.25-3.71H188.1a.6.6,0,0,1-.65-.65V55.33a.6.6,0,0,1,.65-.64h11.25a.59.59,0,0,1,.65.64v5.59A.59.59,0,0,1,199.35,61.57ZM188.1,55.12c-.16,0-.21.05-.21.21v5.59c0,.17.05.21.21.21h11.25c.16,0,.21,0,.21-.21V55.33c0-.16-.05-.21-.21-.21Zm4.77-3.71H188.1a.6.6,0,0,1-.65-.64V45.86a.6.6,0,0,1,.65-.65h4.77a.6.6,0,0,1,.65.65v4.91A.6.6,0,0,1,192.87,51.41Zm-4.77-5.76c-.16,0-.21.05-.21.21v4.91c0,.16.05.2.21.2h4.77c.16,0,.21,0,.21-.2V45.86c0-.16-.05-.21-.21-.21Z" fill="#ea7f7f"/><path d="M236.7,77.46a2.46,2.46,0,0,1-1.42,1,3.17,3.17,0,0,1-.73.09,2.75,2.75,0,0,1-1-.21,1.56,1.56,0,0,1-.94-1.11,2.15,2.15,0,0,1,0-.43,1.62,1.62,0,0,1,.34-1,41.57,41.57,0,0,0,3.31-5.42,2.43,2.43,0,0,1,1.24-1.15,2.06,2.06,0,0,1,1-.26,2.53,2.53,0,0,1,.64.09,1.52,1.52,0,0,1,1.07.93,1.48,1.48,0,0,1,.18.69,1.51,1.51,0,0,1-.18.72A60.35,60.35,0,0,1,236.7,77.46Zm.94-11.65a.19.19,0,0,0-.21.21,1.89,1.89,0,0,1-1.89,1.88A1.9,1.9,0,0,1,233.61,66V44.39a3.57,3.57,0,0,1,1.09-2.63,3.63,3.63,0,0,1,2.64-1.09h5.71a3.63,3.63,0,0,1,2.64,1.09,3.58,3.58,0,0,1,1.1,2.63V62.1a3.74,3.74,0,0,1-3.74,3.71ZM243,44.73a.38.38,0,0,0-.43-.43h-4.72a.38.38,0,0,0-.43.43v5.89a.38.38,0,0,0,.43.43h4.72a.38.38,0,0,0,.43-.43Zm-5.58,17a.37.37,0,0,0,.43.42h4.72a.37.37,0,0,0,.43-.42v-6.7a.38.38,0,0,0-.43-.43h-4.72a.38.38,0,0,0-.43.43Zm7.21,10.11a.78.78,0,0,1,0-.26,1.86,1.86,0,0,1,.39-1.15,1.79,1.79,0,0,1,1.28-.68.82.82,0,0,1,.26,0,2,2,0,0,1,1.2.42,1.93,1.93,0,0,1,.78,1.28,43,43,0,0,1,.6,5,2.07,2.07,0,0,1-.48,1.33,2.22,2.22,0,0,1-1.41.81,2.08,2.08,0,0,1-.3,0,1.7,1.7,0,0,1-1.12-.43,1.93,1.93,0,0,1-.69-1.28C245,75.21,244.87,73.55,244.64,71.87ZM266.23,44.6a.31.31,0,0,0-.08-.3.45.45,0,0,0-.3-.13h-6.14a.49.49,0,0,0-.52.43,13.24,13.24,0,0,1-2.61,5.72A13,13,0,0,1,251,54a1.46,1.46,0,0,1-.68.17,1.83,1.83,0,0,1-.78-.17,2.6,2.6,0,0,1-1.24-1,1.24,1.24,0,0,1-.22-1.13,1.18,1.18,0,0,1,.78-.83,11,11,0,0,0,4.27-2.63,9.26,9.26,0,0,0,2.08-3.9.26.26,0,0,0-.06-.26.39.39,0,0,0-.28-.13h-4.6a1.7,1.7,0,0,1-1.26-.53,1.72,1.72,0,0,1-.54-1.28A1.66,1.66,0,0,1,249,41.1a1.76,1.76,0,0,1,1.26-.51h16.4a3.51,3.51,0,0,1,2.62,1.11,3.2,3.2,0,0,1,.94,2.3,1.13,1.13,0,0,1,0,.3c-.31,4.21-.84,6.72-1.59,7.51A4,4,0,0,1,265.8,53a23,23,0,0,1-2.31.08h-.86a1.91,1.91,0,0,1-1.31-.51,2.55,2.55,0,0,1-.79-1.28,1.09,1.09,0,0,1,.15-1,.94.94,0,0,1,.92-.43c.69,0,1.47,0,2.36,0,.66,0,1.07-.13,1.24-.38C265.66,49.05,266,47.42,266.23,44.6Zm-.85,10.24A3.63,3.63,0,0,1,268,55.93a3.57,3.57,0,0,1,1.09,2.63v4.9A3.57,3.57,0,0,1,268,66.09a3.63,3.63,0,0,1-2.64,1.09H253.49a3.74,3.74,0,0,1-3.74-3.72v-4.9a3.74,3.74,0,0,1,3.74-3.72Zm-.73,9.09a.38.38,0,0,0,.43-.42v-5a.38.38,0,0,0-.43-.42H254a.37.37,0,0,0-.43.42v5a.37.37,0,0,0,.43.42ZM254.26,71.7a1.92,1.92,0,0,1-.09-.56,1.82,1.82,0,0,1,.22-.85,1.57,1.57,0,0,1,1.16-.77,3,3,0,0,1,.42,0,2.42,2.42,0,0,1,1.16.3,2.09,2.09,0,0,1,1,1.19,48.36,48.36,0,0,1,1.51,4.83,1.81,1.81,0,0,1,.08.51,1.85,1.85,0,0,1-.34,1.06,2.2,2.2,0,0,1-1.29.9,2.71,2.71,0,0,1-.47,0,2.09,2.09,0,0,1-1.07-.3,2.2,2.2,0,0,1-.91-1.32A48.66,48.66,0,0,0,254.26,71.7Zm9.36-.3a1.56,1.56,0,0,1-.26-.85,2.36,2.36,0,0,1,.08-.56,1.56,1.56,0,0,1,.95-1,2.47,2.47,0,0,1,.9-.17,2.19,2.19,0,0,1,.73.12,2.34,2.34,0,0,1,1.33,1c1.4,2.1,2.52,3.94,3.35,5.5a1.88,1.88,0,0,1,.26.9,2.38,2.38,0,0,1-.13.72,2.08,2.08,0,0,1-1.16,1.15,1.92,1.92,0,0,1-.82.18,3,3,0,0,1-.81-.13,2.25,2.25,0,0,1-1.2-1.11C266,75.33,264.87,73.42,263.62,71.4Z" fill="#e6e6e6"/><path d="M288,46.09a1.62,1.62,0,0,1,1.16.47,1.59,1.59,0,0,1,.47,1.14,1.63,1.63,0,0,1-.47,1.15,1.6,1.6,0,0,1-1.16.49H277a1.56,1.56,0,0,1-1.16-.49,1.59,1.59,0,0,1-.47-1.15,1.55,1.55,0,0,1,.47-1.14,1.58,1.58,0,0,1,1.16-.47Zm-3.31,17.67a3.65,3.65,0,0,1,2.64,1.07,3.53,3.53,0,0,1,1.09,2.64v5.34a3.55,3.55,0,0,1-1.09,2.62,3.59,3.59,0,0,1-2.64,1.09h-4.16c-.12,0-.18.06-.18.17v.13a1.54,1.54,0,0,1-.49,1.13,1.57,1.57,0,0,1-1.16.49,1.53,1.53,0,0,1-1.14-.49,1.6,1.6,0,0,1-.47-1.13V67.47a3.54,3.54,0,0,1,1.1-2.64,3.65,3.65,0,0,1,2.64-1.07Zm-7-9a1.51,1.51,0,0,1-.47-1.11,1.48,1.48,0,0,1,.47-1.11,1.5,1.5,0,0,1,1.12-.47h8.11a1.49,1.49,0,0,1,1.14.47,1.54,1.54,0,0,1,.45,1.11,1.57,1.57,0,0,1-.45,1.11,1.51,1.51,0,0,1-1.14.46h-8.11A1.53,1.53,0,0,1,277.61,54.72ZM278.73,61a1.54,1.54,0,0,1-1.12-.47,1.59,1.59,0,0,1,0-2.26,1.54,1.54,0,0,1,1.12-.47h8.11a1.6,1.6,0,0,1,0,3.2Zm8-20.7a1.6,1.6,0,0,1,1.59,1.6,1.46,1.46,0,0,1-.47,1.11,1.58,1.58,0,0,1-1.12.45H279a1.54,1.54,0,0,1-1.11-.45,1.42,1.42,0,0,1-.47-1.11,1.61,1.61,0,0,1,1.58-1.6Zm-1.67,27.1a.37.37,0,0,0-.43-.42h-3.91a.38.38,0,0,0-.43.42v5.46a.38.38,0,0,0,.43.43h3.91a.38.38,0,0,0,.43-.43ZM296.8,64.1A3.59,3.59,0,0,1,294.16,63a3.54,3.54,0,0,1-1.1-2.62V54.5c0-.06,0-.09-.08-.1a.1.1,0,0,0-.13.06l-.52.6a1.55,1.55,0,0,1-1.2.51h0a1.88,1.88,0,0,1-1.25-.43,1.45,1.45,0,0,1-.55-1.15,1.36,1.36,0,0,1,.43-1,23.9,23.9,0,0,0,4.2-5.94,1.91,1.91,0,0,1,.86-.87,1.65,1.65,0,0,1,1.2-.11c.09,0,.13,0,.13-.13V44.73a.38.38,0,0,0-.43-.43H291.6a1.43,1.43,0,0,1-1-.42,1.47,1.47,0,0,1-.43-1.05,1.43,1.43,0,0,1,.43-1,1.4,1.4,0,0,1,1-.43h4.25a.23.23,0,0,0,.26-.26v-.47a1.73,1.73,0,0,1,.54-1.26,1.79,1.79,0,0,1,1.29-.53,1.75,1.75,0,0,1,1.28.53,1.73,1.73,0,0,1,.54,1.26v.47a.23.23,0,0,0,.26.26h5.36c.2,0,.3-.09.3-.26v-.43a1.77,1.77,0,0,1,.54-1.3,1.82,1.82,0,0,1,1.31-.53,1.87,1.87,0,0,1,1.33.53,1.75,1.75,0,0,1,.56,1.3v.43a.23.23,0,0,0,.26.26h4a1.46,1.46,0,0,1,1.08.43,1.42,1.42,0,0,1,.42,1,1.46,1.46,0,0,1-.42,1.05,1.49,1.49,0,0,1-1.08.42h-4.08c-.14,0-.21.07-.21.22a2,2,0,0,1-2.06,2h-.26a.43.43,0,0,0-.39.26c-.4.83-.72,1.45-1,1.88a.26.26,0,0,0,0,.23.21.21,0,0,0,.19.11h6.78a1.25,1.25,0,0,1,.95.4,1.38,1.38,0,0,1,.39,1,1.25,1.25,0,0,1-.39.93,1.28,1.28,0,0,1-.95.39H305.9a.38.38,0,0,0-.43.43V53a.37.37,0,0,0,.43.42H312a1.14,1.14,0,0,1,.82.33,1.08,1.08,0,0,1,0,1.57,1.13,1.13,0,0,1-.82.32H305.9a.38.38,0,0,0-.43.43V57a.37.37,0,0,0,.43.42H312a1.1,1.1,0,0,1,.79.32,1.07,1.07,0,0,1,.32.77,1.06,1.06,0,0,1-.32.77,1.1,1.1,0,0,1-.79.32h-6.1a.38.38,0,0,0-.43.43v1a.38.38,0,0,0,.43.43h7.85a1.31,1.31,0,0,1,1,.4,1.29,1.29,0,0,1,.41.94,1.38,1.38,0,0,1-1.38,1.34Zm14,1.58a1.27,1.27,0,0,1,.34,0,1.57,1.57,0,0,1,.77.21l.65.34a1.23,1.23,0,0,1,.66.77,1.14,1.14,0,0,1-.15,1,20.55,20.55,0,0,1-5.92,5.68c-.09,0-.13.08-.11.17a.19.19,0,0,0,.15.17A48.65,48.65,0,0,0,314,75.5a1,1,0,0,1,.86.68,1.07,1.07,0,0,1,.09.43,1,1,0,0,1-.26.64,3.28,3.28,0,0,1-1.33,1.15,2.76,2.76,0,0,1-1.16.26,2.94,2.94,0,0,1-.51,0,39.77,39.77,0,0,1-8.55-2.56.94.94,0,0,0-.77,0,51.56,51.56,0,0,1-10.26,2.73,1.54,1.54,0,0,1-.39,0,2.06,2.06,0,0,1-1-.3,2.51,2.51,0,0,1-1.07-1.07,1.33,1.33,0,0,1-.13-.55,1.08,1.08,0,0,1,.13-.52,1,1,0,0,1,.82-.64A44.82,44.82,0,0,0,298.56,74a.2.2,0,0,0,.15-.17.14.14,0,0,0-.11-.17,23.84,23.84,0,0,1-3-2.39,1.32,1.32,0,0,1-.43-1,1.82,1.82,0,0,1,0-.38,1.52,1.52,0,0,1,.94-1.11c0-.06,0-.09,0-.09h-3.78a1.55,1.55,0,0,1-1.09-.42,1.5,1.5,0,0,1,0-2.14,1.56,1.56,0,0,1,1.09-.43h18.38A.3.3,0,0,0,310.84,65.68Zm-9.36-12.25a.38.38,0,0,0,.43-.42v-.85a.38.38,0,0,0-.43-.43H297.1a.38.38,0,0,0-.43.43V53a.37.37,0,0,0,.43.42Zm0,4a.38.38,0,0,0,.43-.42v-.9a.39.39,0,0,0-.43-.43H297.1a.38.38,0,0,0-.43.43V57a.37.37,0,0,0,.43.42Zm0,4a.39.39,0,0,0,.43-.43V60a.38.38,0,0,0-.43-.43H297.1a.38.38,0,0,0-.43.43v1a.38.38,0,0,0,.43.43Zm4.2-16.69a.38.38,0,0,0-.42-.43H300c-.17,0-.26.07-.26.22v.34a1.71,1.71,0,0,1-1.72,1.7.31.31,0,0,0-.3.18c-.37.82-.68,1.48-.94,2a.26.26,0,0,0,0,.23.25.25,0,0,0,.24.11h4.46a.51.51,0,0,0,.52-.3c.11-.25.22-.5.34-.73a2.75,2.75,0,0,1,1.24-1.4,2.43,2.43,0,0,1,1.33-.39,2.8,2.8,0,0,1,.48.05c.17,0,.25-.05.25-.22ZM307.79,69a.16.16,0,0,0,0-.19.17.17,0,0,0-.17-.11h-9.53a.17.17,0,0,0-.17.11.16.16,0,0,0,0,.19,17.74,17.74,0,0,0,4.51,3.12.94.94,0,0,0,.77,0A21.3,21.3,0,0,0,307.79,69Z" fill="#e6e6e6"/><path d="M358.4,63.85a1.72,1.72,0,0,1,.47,1.19,1.27,1.27,0,0,1,0,.34,2,2,0,0,1-.9,1.37,2.48,2.48,0,0,1-1.25.34,2.15,2.15,0,0,1-.43,0,2.32,2.32,0,0,1-1.5-.86c-.29-.36-.62-.75-1-1.15a.8.8,0,0,0-.68-.34q-5.41.26-11.08.39a.37.37,0,0,0-.43.42V76.86a2.15,2.15,0,1,1-4.29,0V65.64a.34.34,0,0,0-.13-.28.47.47,0,0,0-.3-.1q-6.62.21-14.34.38h0A2.13,2.13,0,0,1,321,65a2.29,2.29,0,0,1-.78-1.45v-.21a1.69,1.69,0,0,1,.48-1.2,1.81,1.81,0,0,1,1.41-.64q1.89,0,6.87-.08a1.34,1.34,0,0,0,.82-.26c.71-.51,1.61-1.19,2.7-2.05a.32.32,0,0,0,0-.55,55.56,55.56,0,0,0-7.64-5.68,1.48,1.48,0,0,1-.66-1.13,1.32,1.32,0,0,1,.45-1.17,2.42,2.42,0,0,1,1.46-.68h.3a2.57,2.57,0,0,1,1.29.34c.23.17.45.32.68.47a.4.4,0,0,0,.48-.09,63.3,63.3,0,0,0,4.5-5,.21.21,0,0,0,0-.19.17.17,0,0,0-.17-.11q-4.54.26-9,.34h0a2.07,2.07,0,0,1-1.38-.51,2.47,2.47,0,0,1-.86-1.32,1.44,1.44,0,0,1,.22-1.22,1.34,1.34,0,0,1,1.07-.62,212.57,212.57,0,0,0,27.9-2.22,2.56,2.56,0,0,1,.65-.08,3.9,3.9,0,0,1,1.37.25,3.46,3.46,0,0,1,1.63,1.16,1.18,1.18,0,0,1,.35.81,1.34,1.34,0,0,1-.09.46,1.15,1.15,0,0,1-1,.82c-4.23.74-9.29,1.32-15.15,1.75l-.05,0c.23.08.28.23.13.43a84.47,84.47,0,0,1-6.87,7.21c-.2.2-.18.37.05.51q2.06,1.45,3.6,2.77a.48.48,0,0,0,.65,0,110.83,110.83,0,0,0,8.45-8.11,2.75,2.75,0,0,1,1.64-.89,2.92,2.92,0,0,1,.51,0,2.77,2.77,0,0,1,1.33.34,1.58,1.58,0,0,1,.86,1.24.73.73,0,0,1,0,.25,1.49,1.49,0,0,1-.51,1.15,145.33,145.33,0,0,1-12.84,11.23.15.15,0,0,0-.06.17c0,.05.06.08.15.08q9.41-.16,13.65-.3a.13.13,0,0,0,.13-.1.19.19,0,0,0,0-.2c-.78-.73-1.55-1.43-2.32-2.09a1.49,1.49,0,0,1,.17-2.39,2.75,2.75,0,0,1,1.46-.42h.17a2.68,2.68,0,0,1,1.59.59A76.25,76.25,0,0,1,358.4,63.85ZM327.58,69a3.38,3.38,0,0,1,1.67-1,2.74,2.74,0,0,1,.82-.13,3.47,3.47,0,0,1,1.07.17,1.45,1.45,0,0,1,1,1.07,1.27,1.27,0,0,1,.08.42,1.44,1.44,0,0,1-.38,1,51.89,51.89,0,0,1-7,6.36,2.7,2.7,0,0,1-1.68.6.38.38,0,0,1-.17,0,3.09,3.09,0,0,1-1.84-.69,1.42,1.42,0,0,1-.65-1.19,1.47,1.47,0,0,1,.73-1.32A36.53,36.53,0,0,0,327.58,69Zm19.27,1.58a1.39,1.39,0,0,1-.56-1.16,1.35,1.35,0,0,1,.65-1.19,2.77,2.77,0,0,1,1.63-.51,2.89,2.89,0,0,1,1.72.55A84.35,84.35,0,0,1,357.67,74a1.62,1.62,0,0,1,.6,1.28,1.85,1.85,0,0,1-.82,1.58,2.4,2.4,0,0,1-1.45.47h-.26a3.09,3.09,0,0,1-1.68-.77A75.13,75.13,0,0,0,346.85,70.55Z" fill="#e6e6e6"/><path d="M376.6,61.16a.34.34,0,0,0-.34-.26l-2.15.13a.43.43,0,0,0-.43.47V77.2a1.77,1.77,0,0,1-.54,1.31,1.75,1.75,0,0,1-1.28.53A1.83,1.83,0,0,1,370,77.2V61.71a.37.37,0,0,0-.13-.29.28.28,0,0,0-.3-.09c-1.63.09-3.1.17-4.42.26h-.13a1.89,1.89,0,0,1-1.84-1.88,1.52,1.52,0,0,1,.43-1.07,1.63,1.63,0,0,1,1.2-.6h.94a.67.67,0,0,0,.52-.29c.83-1.09,1.51-2,2.06-2.82a.59.59,0,0,0,0-.73,42.55,42.55,0,0,0-4-4.61,1.85,1.85,0,0,1-.58-1.21,1.72,1.72,0,0,1,.36-1.26l.17-.21a1.27,1.27,0,0,1,.9-.54,1.23,1.23,0,0,1,1,.32.14.14,0,0,0,.22,0,56.33,56.33,0,0,0,2.83-6,2,2,0,0,1,1.8-1.23,1.87,1.87,0,0,1,.69.13,1.81,1.81,0,0,1,1,1,2.47,2.47,0,0,1,.08.6,2.1,2.1,0,0,1-.17.81q-2.23,4.14-3.86,6.61a.53.53,0,0,0,.08.69,21.07,21.07,0,0,1,1.55,1.75.22.22,0,0,0,.24.1.3.3,0,0,0,.23-.15q1.75-2.85,3.14-5.46a1.81,1.81,0,0,1,1.07-.94,2,2,0,0,1,.64-.13,1.71,1.71,0,0,1,.82.22,1.56,1.56,0,0,1,.86,1,1.81,1.81,0,0,1,.08.51,1.35,1.35,0,0,1-.26.81q-3.9,6.19-7.21,10.5a.21.21,0,0,0,.17.34l4.64-.21a.24.24,0,0,0,.21-.13.27.27,0,0,0,0-.3,19.68,19.68,0,0,0-.9-1.84,1.35,1.35,0,0,1-.06-1.08,1.21,1.21,0,0,1,.75-.79,1.61,1.61,0,0,1,1.2,0,1.85,1.85,0,0,1,.95.77,34.89,34.89,0,0,1,2.79,6.19,1.68,1.68,0,0,1-.09,1.28,1.86,1.86,0,0,1-1,.94,1.28,1.28,0,0,1-1.13,0,1.34,1.34,0,0,1-.75-.88C376.76,61.54,376.69,61.36,376.6,61.16ZM365.05,65.6a1.56,1.56,0,0,1,.67-1.11,1.61,1.61,0,0,1,1.31-.3,1.9,1.9,0,0,1,1.16.72,1.82,1.82,0,0,1,.3,1v.34a40.56,40.56,0,0,1-2,7.81,1.29,1.29,0,0,1-.9.85,1.57,1.57,0,0,1-1.29-.13,1.7,1.7,0,0,1-.9-1,1.72,1.72,0,0,1,0-1.3A37.08,37.08,0,0,0,365.05,65.6Zm14.73,4.26a1.51,1.51,0,0,1-.13,1.26,1.74,1.74,0,0,1-1,.84,1.43,1.43,0,0,1-1.2-.11,1.51,1.51,0,0,1-.73-1c-.46-1.65-1-3.32-1.63-5a1.14,1.14,0,0,1-.13-.52,1.49,1.49,0,0,1,.17-.64A1.25,1.25,0,0,1,376,64a1.66,1.66,0,0,1,1.24.06,1.68,1.68,0,0,1,.86.88A43.31,43.31,0,0,1,379.78,69.86Zm4.68-7.42a2,2,0,0,1,2-1.92,1.89,1.89,0,0,1,1.38.55,1.8,1.8,0,0,1,.51,1.24,24.62,24.62,0,0,1-2,10,12.25,12.25,0,0,1-5.67,5.93,1.94,1.94,0,0,1-.9.26,1.62,1.62,0,0,1-.6-.13,2.38,2.38,0,0,1-1.25-.9,1.38,1.38,0,0,1-.34-.89.87.87,0,0,1,0-.3,1.45,1.45,0,0,1,.73-1,9.7,9.7,0,0,0,4.55-4.75A25.3,25.3,0,0,0,384.46,62.44Zm-4.94-5.38a1.78,1.78,0,0,1,.43-1.19,1.76,1.76,0,0,1,1.29-.64l1.41-.09a.57.57,0,0,0,.56-.34,50.84,50.84,0,0,0,2.41-6.44.31.31,0,0,0-.05-.26.28.28,0,0,0-.26-.13H381a1.78,1.78,0,0,1-1.31-.53,1.86,1.86,0,0,1,0-2.6A1.79,1.79,0,0,1,381,44.3h7.21a.37.37,0,0,0,.43-.42v-3a2,2,0,0,1,.6-1.45,2.08,2.08,0,0,1,2.92,0,2,2,0,0,1,.6,1.45v3a.38.38,0,0,0,.43.42h8a1.83,1.83,0,0,1,1.29.54,1.81,1.81,0,0,1,0,2.6,1.82,1.82,0,0,1-1.29.53H390.81a.6.6,0,0,0-.6.39c-1.38,3.07-2.32,5.13-2.84,6.18a.28.28,0,0,0,.26.35l8.37-.56a.21.21,0,0,0,.2-.13.25.25,0,0,0,0-.25c-.43-.6-.88-1.2-1.34-1.79a1.39,1.39,0,0,1-.27-1.22,1.47,1.47,0,0,1,.75-1,2.16,2.16,0,0,1,1-.26,2.71,2.71,0,0,1,.47,0,1.94,1.94,0,0,1,1.24.73,50.08,50.08,0,0,1,4.81,6.91,1.74,1.74,0,0,1,.26.9,1.91,1.91,0,0,1-.09.55,2,2,0,0,1-1,1.15,1.71,1.71,0,0,1-.86.26,1.37,1.37,0,0,1-.56-.13,1.82,1.82,0,0,1-1.12-.94c-.23-.39-.45-.78-.68-1.15a.59.59,0,0,0-.6-.3L381.58,59h-.17a1.68,1.68,0,0,1-1.2-.47A1.77,1.77,0,0,1,379.52,57.06Zm17.86,18h2.32c.34,0,.58-.22.7-.68a15.41,15.41,0,0,0,.28-2.86,1.06,1.06,0,0,1,.58-.9,1.37,1.37,0,0,1,1.14-.08,2.79,2.79,0,0,1,1.24,1.07,2.12,2.12,0,0,1,.43,1.28.68.68,0,0,1,0,.21,8.76,8.76,0,0,1-1.16,4.35,3.26,3.26,0,0,1-2.79,1.2h-3.39c-1.63,0-2.72-.34-3.26-1s-.82-2-.82-3.88V62.35a1.81,1.81,0,0,1,.56-1.32,1.93,1.93,0,0,1,2.7,0,1.77,1.77,0,0,1,.56,1.32V73.79a2.23,2.23,0,0,0,.17,1.09A1,1,0,0,0,397.38,75.11Z" fill="#e6e6e6"/><path d="M163.15,27A14.75,14.75,0,0,1,157.06,28c-6.49,0-11.37-4.07-11.37-11.58,0-7.17,4.88-12,12-12a12.31,12.31,0,0,1,5.46,1l-.72,2.41a10.89,10.89,0,0,0-4.64-1c-5.4,0-9,3.43-9,9.44,0,5.61,3.25,9.21,8.85,9.21a11.89,11.89,0,0,0,4.85-.95Z" fill="#6995bc"/><path d="M175.69,27.7l-.24-2.07h-.1a6.18,6.18,0,0,1-5.06,2.45,4.7,4.7,0,0,1-5-4.73c0-4,3.55-6.15,9.94-6.11V16.9c0-1.36-.38-3.81-3.76-3.81a8.31,8.31,0,0,0-4.3,1.22l-.69-2a10.36,10.36,0,0,1,5.44-1.46c5,0,6.28,3.43,6.28,6.73v6.15a22.44,22.44,0,0,0,.28,3.94Zm-.44-8.39c-3.28-.07-7,.51-7,3.7a2.66,2.66,0,0,0,2.84,2.86,4.12,4.12,0,0,0,4-2.75,3.24,3.24,0,0,0,.17-1Z" fill="#6995bc"/><path d="M183,16.39c0-1.94,0-3.6-.14-5.13h2.63l.11,3.22h.13a5,5,0,0,1,4.58-3.6,3.76,3.76,0,0,1,.86.1v2.83a4.45,4.45,0,0,0-1-.11c-2.12,0-3.62,1.6-4,3.84a8.28,8.28,0,0,0-.14,1.4V27.7h-3Z" fill="#6995bc"/><path d="M195.52,20c.07,4.05,2.67,5.71,5.67,5.71a10.88,10.88,0,0,0,4.58-.85l.51,2.14a13.38,13.38,0,0,1-5.5,1c-5.09,0-8.13-3.33-8.13-8.29s2.94-8.87,7.76-8.87c5.4,0,6.83,4.73,6.83,7.75a12.08,12.08,0,0,1-.1,1.39Zm8.82-2.14c0-1.9-.79-4.86-4.17-4.86-3,0-4.38,2.79-4.62,4.86Z" fill="#6995bc"/><path d="M218.32,5.11a30.64,30.64,0,0,1,5.7-.48c3.18,0,5.23.58,6.67,1.87a5.69,5.69,0,0,1,1.81,4.35,6,6,0,0,1-4.34,5.84v.11c1.78.61,2.84,2.24,3.38,4.62a35.78,35.78,0,0,0,1.78,6.28h-3.08a30,30,0,0,1-1.53-5.47c-.69-3.16-1.92-4.35-4.62-4.45h-2.8V27.7h-3Zm3,10.43h3c3.18,0,5.2-1.73,5.2-4.35,0-3-2.16-4.25-5.3-4.28a12.1,12.1,0,0,0-2.94.27Z" fill="#6995bc"/><path d="M238.41,20c.07,4.05,2.67,5.71,5.68,5.71a10.88,10.88,0,0,0,4.58-.85l.51,2.14a13.38,13.38,0,0,1-5.5,1c-5.09,0-8.14-3.33-8.14-8.29s2.94-8.87,7.76-8.87c5.4,0,6.84,4.73,6.84,7.75A9.81,9.81,0,0,1,250,20Zm8.82-2.14c0-1.9-.78-4.86-4.17-4.86-3,0-4.37,2.79-4.61,4.86Z" fill="#6995bc"/><path d="M253.86,3.58h3V27.7h-3Z" fill="#6995bc"/><path d="M265.28,6.64a1.87,1.87,0,0,1-3.73,0,1.83,1.83,0,0,1,1.88-1.87A1.78,1.78,0,0,1,265.28,6.64ZM261.93,27.7V11.26h3V27.7Z" fill="#6995bc"/><path d="M271.6,20c.07,4.05,2.67,5.71,5.67,5.71a10.81,10.81,0,0,0,4.58-.85l.52,2.14a13.4,13.4,0,0,1-5.51,1c-5.09,0-8.13-3.33-8.13-8.29s2.94-8.87,7.76-8.87c5.4,0,6.83,4.73,6.83,7.75a12.08,12.08,0,0,1-.1,1.39Zm8.82-2.14c0-1.9-.79-4.86-4.17-4.86-3,0-4.37,2.79-4.61,4.86Z" fill="#6995bc"/><path d="M287.36,27.7V13.53H285V11.26h2.32v-.79c0-2.31.51-4.41,1.91-5.74a5.81,5.81,0,0,1,4-1.53,6.93,6.93,0,0,1,2.56.48L295.46,6a4.61,4.61,0,0,0-1.92-.37c-2.56,0-3.21,2.24-3.21,4.75v.89h4v2.27h-4V27.7Z" fill="#6995bc"/><path d="M304,24.1a10.53,10.53,0,0,0,5.33,1.5c3,0,4.82-1.6,4.82-3.91,0-2.14-1.23-3.37-4.34-4.56-3.76-1.32-6.08-3.26-6.08-6.48,0-3.57,3-6.22,7.45-6.22a10.52,10.52,0,0,1,5.09,1.12L315.42,8A9.18,9.18,0,0,0,311,6.87c-3.14,0-4.34,1.87-4.34,3.44,0,2.14,1.41,3.19,4.58,4.41,3.9,1.5,5.88,3.37,5.88,6.73,0,3.53-2.63,6.59-8.06,6.59a11.92,11.92,0,0,1-5.88-1.46Z" fill="#6995bc"/><path d="M322,11.26,325.57,21c.38,1.09.79,2.38,1.06,3.37h.07c.31-1,.65-2.24,1.06-3.43L331,11.26h3.18L329.71,23c-2.16,5.64-3.63,8.53-5.68,10.3a8.1,8.1,0,0,1-3.69,1.93l-.75-2.51a8.17,8.17,0,0,0,2.63-1.46,9.07,9.07,0,0,0,2.53-3.33,2.12,2.12,0,0,0,.24-.72,2.72,2.72,0,0,0-.2-.78l-6.12-15.15Z" fill="#6995bc"/><path d="M336.34,24.64a7.89,7.89,0,0,0,4,1.19c2.19,0,3.21-1.08,3.21-2.44s-.85-2.21-3.07-3c-3-1.05-4.37-2.68-4.37-4.65,0-2.65,2.15-4.83,5.7-4.83a8.32,8.32,0,0,1,4.07,1l-.75,2.18a6.47,6.47,0,0,0-3.39-.95c-1.77,0-2.76,1-2.76,2.24s1,2,3.14,2.78c2.87,1.09,4.34,2.52,4.34,5,0,2.88-2.26,4.92-6.18,4.92a9.45,9.45,0,0,1-4.65-1.12Z" fill="#6995bc"/><path d="M353.91,6.53v4.73h4.3v2.27h-4.3V22.4c0,2,.58,3.2,2.25,3.2a6.67,6.67,0,0,0,1.74-.21l.14,2.24a7.31,7.31,0,0,1-2.66.41,4.16,4.16,0,0,1-3.25-1.26c-.86-.88-1.16-2.34-1.16-4.28v-9H348.4V11.26H351V7.32Z" fill="#6995bc"/><path d="M363.07,20c.07,4.05,2.66,5.71,5.67,5.71a10.88,10.88,0,0,0,4.58-.85l.51,2.14a13.38,13.38,0,0,1-5.5,1c-5.09,0-8.13-3.33-8.13-8.29s2.94-8.87,7.75-8.87c5.4,0,6.84,4.73,6.84,7.75a9.81,9.81,0,0,1-.11,1.39Zm8.81-2.14c0-1.9-.78-4.86-4.17-4.86-3,0-4.37,2.79-4.61,4.86Z" fill="#6995bc"/><path d="M378.52,15.71c0-1.7,0-3.09-.14-4.45H381l.14,2.65h.1a5.69,5.69,0,0,1,5.19-3,4.9,4.9,0,0,1,4.69,3.3h.06A6.91,6.91,0,0,1,393,12a5.65,5.65,0,0,1,3.66-1.16c2.18,0,5.43,1.43,5.43,7.14V27.7h-2.94V18.39c0-3.16-1.16-5.06-3.59-5.06a3.88,3.88,0,0,0-3.55,2.72,4.79,4.79,0,0,0-.24,1.49V27.7h-2.94V17.85c0-2.62-1.16-4.52-3.45-4.52a4.11,4.11,0,0,0-3.73,3,4.1,4.1,0,0,0-.23,1.46V27.7h-2.94Z" fill="#6995bc"/></g></g></svg>